# Blender v2.83.2 OBJ File: 'Wall.blend'
# www.blender.org
mtllib TestRoom.mtl
o Cube.006_Cube.005
v -20.447588 -0.679337 25.720284
v -20.870205 0.226971 25.720284
v -20.447588 3.320663 25.720284
v -20.870205 4.226971 25.720284
v -20.447588 7.320663 25.720284
v -20.870205 8.226971 25.720284
v 184.474304 -19.486610 -50.971443
v 184.474304 26.303547 -50.971443
v 184.481628 -19.486610 -48.971455
v 184.481628 26.303547 -48.971455
v 7.177752 -19.486610 -48.321354
v 7.177752 26.303547 -48.321354
v -190.443283 -19.486610 -49.596775
v -190.443283 26.303547 -49.596775
v -190.435959 -19.486610 -47.596786
v -190.435959 26.303547 -47.596786
v -25.660925 -19.486610 -48.200951
v -25.660925 26.303547 -48.200951
v -25.668257 -19.486610 -50.200935
v -25.668257 26.303547 -50.200935
v -190.234695 26.303547 7.294823
v -190.234695 -19.486610 7.294823
v -25.459660 -19.486610 6.690659
v -25.459660 26.303547 6.690659
v 184.674225 26.303547 3.556328
v 184.674225 -19.486610 3.556328
v -190.142593 26.303547 32.411674
v -190.142593 -19.486610 32.411674
v -25.367565 -19.486610 31.807510
v -25.367565 26.303547 31.807510
v 23.544636 -19.486610 -48.381367
v 23.544636 26.303547 -48.381367
v 23.537304 -19.486610 -50.381351
v 23.537304 26.303547 -50.381351
v 23.737234 -19.486610 4.146420
v 23.737234 26.303547 4.146420
v 200.297195 26.303547 30.189270
v 200.297195 -19.486610 30.189270
v 39.360199 -19.486610 30.779358
v 39.360199 26.303547 30.779358
v -190.036301 26.303547 61.401451
v -190.036301 -19.486610 61.401451
v -25.261272 -19.486610 60.797287
v -25.261272 26.303547 60.797287
v -220.011017 -19.486610 72.551575
v -220.011017 26.303547 72.551575
v -220.051498 -19.486610 61.511505
v -220.051498 26.303547 61.511505
v 55.763702 26.303547 40.706558
v 55.763702 -19.486610 40.706558
v 239.398895 26.303547 30.045898
v 239.398895 -19.486610 30.045898
v 239.435516 26.303547 40.033104
v 239.435516 -19.486610 40.033104
v 83.911613 26.303547 40.603348
v 228.445099 26.303547 30.086067
v 228.445099 -19.486610 30.086067
v 83.911613 -19.486610 40.603348
v 239.803619 26.303547 140.428757
v 239.803619 -19.486610 140.428757
v 228.849823 26.303547 140.468918
v 228.849823 -19.486610 140.468918
v 239.703339 26.303547 113.079605
v 239.703339 -19.486610 113.079605
v 84.179451 -19.486610 113.649841
v 84.179451 26.303547 113.649841
v 45.382450 26.303547 141.141617
v 45.382450 -19.486610 141.141617
v -39.464058 26.303547 71.889580
v -39.464058 -19.486610 71.889580
v -25.220793 -19.486610 71.837357
v -25.220793 26.303547 71.837357
v -39.464058 26.303547 71.889580
v -39.464058 -19.486610 71.889580
v 215.054688 -19.486610 140.519501
v 215.054688 26.303547 140.519501
v -219.759293 -19.486610 141.207016
v -219.759293 26.303547 141.207016
v -39.212326 26.303547 140.545029
v -39.212326 -19.486610 140.545029
v -39.212326 26.303547 140.545029
v -39.212326 -19.486610 140.545029
v -219.759293 26.303547 141.207016
v -219.759293 -19.486610 141.207016
v 70.384315 -19.486610 113.700424
v 70.384315 26.303547 113.700424
v 51.150761 -19.486610 244.119354
v 51.150761 26.303547 244.119354
v 215.432343 26.303547 243.516998
v -38.834679 26.303547 243.542542
v -38.834679 -19.486610 243.542542
v -219.381638 26.303547 244.204529
v -219.381638 -19.486610 244.204529
v 215.432343 -19.486610 243.516998
v -20.333801 26.303547 140.475800
v -20.333801 -19.486610 140.475800
v 7.171518 -19.486610 -50.021343
v 7.470417 -19.486610 -50.322441
v 7.470417 26.303547 -50.322441
v 7.171518 26.303547 -50.021343
v -5.744641 -19.486610 -50.273987
v -5.443543 -19.486610 -49.975090
v -5.443543 26.303547 -49.975090
v -5.744641 26.303547 -50.273987
v -5.438410 -19.486610 -48.575100
v -5.737309 -19.486610 -48.274002
v -5.737309 26.303547 -48.274002
v -5.438410 26.303547 -48.575100
v 7.670347 -19.486610 4.205330
v 7.369249 -19.486610 3.906433
v 7.369249 26.303547 3.906433
v 7.670347 26.303547 4.205330
v -8.116626 -19.486610 6.627068
v -7.815527 -19.486610 6.925968
v -7.815527 26.303547 6.925968
v -8.116626 26.303547 6.627068
v -7.725634 -19.486610 31.442825
v -8.024532 -19.486610 31.743919
v -8.024532 26.303547 31.743919
v -7.725634 26.303547 31.442825
v 39.696815 -19.486610 40.765465
v 39.395718 -19.486610 40.466568
v 39.395718 26.303547 40.466568
v 39.696815 26.303547 40.765465
v 45.283272 -19.486610 114.092468
v 45.582172 -19.486610 113.791367
v 45.582172 26.303547 113.791367
v 45.283272 26.303547 114.092468
v -25.220793 -19.486610 71.837357
v -25.520790 -19.486610 71.838455
v -25.520790 26.303547 71.838455
v -25.220793 26.303547 71.837357
v -20.332703 26.303547 140.775803
v -20.333801 26.303547 140.475800
v -20.633799 26.303547 140.476898
v -20.633799 -19.486610 140.476898
v -20.332703 -19.486610 140.775803
v -20.333801 -19.486610 140.475800
v -20.256149 26.303547 243.474426
v -19.957253 26.303547 243.173340
v -19.957253 -19.486610 243.173340
v -20.256149 -19.486610 243.474426
v 24.742535 26.303547 141.217285
v 24.443636 26.303547 141.518402
v 24.443636 -19.486610 141.518402
v 24.742535 -19.486610 141.217285
v 25.120184 -19.486610 244.214783
v 24.819086 -19.486610 243.915894
v 24.819086 26.303547 243.915894
v 25.120184 26.303547 244.214783
v -20.592693 6.921986 31.790001
v -20.447588 7.320663 31.489479
v -21.268883 8.372078 31.792480
v -20.870205 8.226971 31.491028
v -7.746616 14.346601 25.720284
v -8.018511 14.219815 25.720284
v -8.018511 13.116439 25.720284
v -7.746616 13.243225 25.720284
v -8.024532 14.548018 31.743919
v -7.725642 14.356382 31.442833
v -7.996527 14.230065 31.715721
v -7.725634 14.656386 31.442825
v -7.725642 13.253006 31.442833
v -8.024532 12.782617 31.743919
v -7.725634 12.953010 31.442825
v -7.996527 13.126688 31.715721
v -20.592693 2.921985 31.790001
v -20.447588 3.320662 31.489479
v -21.268883 4.372078 31.792480
v -20.870205 4.226971 31.491028
v -7.747715 10.646089 25.420280
v -8.026806 10.215947 25.720284
v -8.026807 9.112570 25.720284
v -7.747716 8.942712 25.420280
v -8.004473 10.226356 31.723724
v -7.725634 10.656386 31.442825
v -8.024532 10.548015 31.743919
v -7.725634 10.356386 31.442825
v -7.725634 8.953010 31.442825
v -8.004474 9.122981 31.723724
v -7.725642 9.253006 31.442833
v -8.024532 8.782615 31.743919
v -20.592693 -1.078015 31.790001
v -20.447588 -0.679337 31.489479
v -21.268883 0.372078 31.792480
v -20.870205 0.226971 31.491028
v -7.747716 6.646089 25.420280
v -8.026807 6.215947 25.720284
v -8.026808 5.112569 25.720284
v -7.747717 4.942710 25.420280
v -8.004474 6.226357 31.723724
v -7.725634 6.656386 31.442825
v -8.024532 6.548016 31.743919
v -7.725634 6.356386 31.442825
v -7.725634 4.953010 31.442825
v -8.004475 5.122984 31.723724
v -7.725642 5.253007 31.442833
v -8.024532 4.782618 31.743919
vt 0.000000 0.000000
vt 0.000000 0.000000
vt 0.701856 0.000000
vt 0.686473 0.000000
vt 0.685241 0.000000
vt 0.000000 1.000000
vt 0.000000 1.000000
vt 0.708556 1.000000
vt 0.709788 1.000000
vt 0.725172 1.000000
vt 0.000000 0.000000
vt 0.000000 0.000000
vt 0.701856 0.000000
vt 0.686473 0.000000
vt 0.685241 0.000000
vt 0.000000 1.000000
vt 0.000000 1.000000
vt 0.708556 1.000000
vt 0.709788 1.000000
vt 0.725172 1.000000
vt 0.375000 0.353311
vt 0.625000 0.353311
vt 0.625000 0.353311
vt 0.561410 0.353311
vt 0.559719 0.353311
vt 0.553695 0.353311
vt 0.552110 0.353311
vt 0.539571 0.353311
vt 0.539515 0.353311
vt 0.530215 0.353311
vt 0.530272 0.353311
vt 0.517733 0.353311
vt 0.517677 0.353311
vt 0.508377 0.353311
vt 0.508433 0.353311
vt 0.375000 0.353311
vt 0.000000 1.000000
vt 0.000000 1.000000
vt 0.709014 1.000000
vt 0.710227 1.000000
vt 0.725172 1.000000
vt 0.000000 0.000000
vt 0.000000 0.000000
vt 0.375000 0.000000
vt 0.625000 0.000000
vt 0.625000 0.250000
vt 0.375000 0.250000
vt 0.375000 0.353311
vt 0.625000 0.353311
vt 0.625000 0.353311
vt 0.375000 0.353311
vt 0.375000 0.752291
vt 0.625000 0.752291
vt 0.625000 0.875000
vt 0.375000 0.875000
vt 0.625000 1.000000
vt 0.375000 1.000000
vt 0.375000 0.500000
vt 0.625000 0.500000
vt 0.625000 0.712500
vt 0.375000 0.712500
vt 0.750000 0.500000
vt 0.875000 0.500000
vt 0.875000 0.750000
vt 0.750000 0.750000
vt 0.375000 0.000000
vt 0.375000 0.250000
vt 0.625000 0.250000
vt 0.625000 0.000000
vt 0.375000 0.500000
vt 0.625000 0.500000
vt 0.375000 0.752176
vt 0.375000 0.896689
vt 0.625000 0.896689
vt 0.625000 0.752176
vt 0.375000 1.000000
vt 0.625000 1.000000
vt 0.375000 0.537500
vt 0.375000 0.712500
vt 0.625000 0.712500
vt 0.625000 0.537500
vt 0.771689 0.500000
vt 0.771689 0.750000
vt 0.875000 0.750000
vt 0.875000 0.500000
vt 0.375000 0.353311
vt 0.375000 0.497824
vt 0.625000 0.497824
vt 0.625000 0.353311
vt 0.125000 0.500000
vt 0.125000 0.750000
vt 0.228311 0.750000
vt 0.228311 0.500000
vt 0.627176 0.500000
vt 0.627176 0.750000
vt 0.228311 0.500000
vt 0.125000 0.500000
vt 0.771689 0.500000
vt 0.875000 0.500000
vt 0.875000 0.500000
vt 0.771689 0.500000
vt 0.375000 0.250000
vt 0.625000 0.250000
vt 0.627291 0.500000
vt 0.750000 0.500000
vt 0.625000 0.250000
vt 0.375000 0.250000
vt 0.250000 0.500000
vt 0.250000 0.500000
vt 0.372709 0.500000
vt 0.125000 0.500000
vt 0.125000 0.500000
vt 0.375000 0.250000
vt 0.625000 0.250000
vt 0.250000 0.500000
vt 0.125000 0.500000
vt 0.125000 0.500000
vt 0.247709 0.500000
vt 0.250000 0.500000
vt 0.228311 0.500000
vt 0.125000 0.500000
vt 0.375000 0.375000
vt 0.625000 0.375000
vt 0.625000 0.497709
vt 0.375000 0.497709
vt 0.625000 0.250000
vt 0.375000 0.250000
vt 0.372824 0.750000
vt 0.372824 0.500000
vt 0.250000 0.750000
vt 0.125000 0.750000
vt 0.627291 0.750000
vt 0.875000 0.500000
vt 0.125000 0.500000
vt 0.125000 0.500000
vt 0.125000 0.500000
vt 0.125000 0.500000
vt 0.125000 0.500000
vt 0.375000 0.375000
vt 0.625000 0.375000
vt 0.750000 0.500000
vt 0.875000 0.500000
vt 0.228311 0.500000
vt 0.228311 0.500000
vt 0.228311 0.500000
vt 0.228311 0.500000
vt 0.771689 0.500000
vt 0.771689 0.500000
vt 0.771689 0.500000
vt 0.771689 0.500000
vt 0.701856 0.000000
vt 0.686911 0.000000
vt 0.685699 0.000000
vt 0.375000 0.250000
vt 0.625000 0.250000
vt 0.875000 0.500000
vt 0.771689 0.500000
vt 0.228311 0.500000
vt 0.125000 0.500000
vt 0.375000 0.353311
vt 0.625000 0.353311
vt 0.625000 0.353311
vt 0.375000 0.353311
vt 0.625000 0.250000
vt 0.375000 0.250000
vt 0.375000 0.250000
vt 0.625000 0.250000
vt 0.625000 0.353311
vt 0.375000 0.353311
vt 0.375000 0.250000
vt 0.625000 0.250000
vt 0.625000 0.250000
vt 0.375000 0.250000
vt 0.875000 0.500000
vt 0.771689 0.500000
vt 0.228311 0.500000
vt 0.125000 0.500000
vt 0.375000 0.375000
vt 0.625000 0.375000
vt 0.875000 0.500000
vt 0.875000 0.500000
vt 0.875000 0.500000
vt 0.875000 0.500000
vt 0.750000 0.500000
vt 0.752291 0.500000
vt 0.875000 0.500000
vt 0.375000 0.250000
vt 0.625000 0.250000
vt 0.625000 0.372709
vt 0.375000 0.372709
vt 0.375000 0.250000
vt 0.625000 0.250000
vt 0.625000 0.250000
vt 0.375000 0.250000
vt 0.375000 0.250000
vt 0.625000 0.250000
vt 0.125000 0.500000
vt 0.125000 0.500000
vt 0.125000 0.500000
vt 0.125000 0.500000
vt 0.375000 0.250000
vt 0.625000 0.250000
vt 0.625000 0.250000
vt 0.375000 0.250000
vt 0.375000 0.250000
vt 0.625000 0.250000
vt 0.625000 0.250000
vt 0.375000 0.250000
vt 0.875000 0.500000
vt 0.875000 0.500000
vt 0.875000 0.500000
vt 0.875000 0.500000
vt 0.125000 0.500000
vt 0.125000 0.500000
vt 0.125000 0.500000
vt 0.125000 0.500000
vt 0.375000 0.250000
vt 0.625000 0.250000
vt 0.625000 0.250000
vt 0.375000 0.250000
vt 0.375000 0.250000
vt 0.625000 0.250000
vt 0.875000 0.500000
vt 0.875000 0.500000
vt 0.875000 0.500000
vt 0.875000 0.500000
vt 0.875000 0.500000
vt 0.625000 0.250000
vt 0.375000 0.250000
vt 0.375000 0.250000
vt 0.625000 0.250000
vt 0.228311 0.500000
vt 0.226135 0.500000
vt 0.125000 0.500000
vt 0.875000 0.500000
vt 0.773865 0.500000
vt 0.771689 0.500000
vt nan nan
vt nan nan
vt nan nan
vt nan nan
vt 0.375000 0.351135
vt 0.625000 0.351135
vt 0.625000 0.250000
vt 0.625000 0.250000
vt 0.375000 0.250000
vt 0.125000 0.500000
vt 0.125000 0.500000
vt 0.125000 0.500000
vt 0.125000 0.500000
vt 0.875000 0.500000
vt 0.875000 0.500000
vt 0.375000 0.250000
vt 0.625000 0.250000
vt 0.875000 0.500000
vt 0.875000 0.500000
vt 0.125000 0.500000
vt 0.125000 0.500000
vt 0.375000 0.250000
vt 0.625000 0.250000
vt 0.875000 0.500000
vt 0.875000 0.500000
vt 0.875000 0.500000
vt 0.875000 0.500000
vt 0.625000 0.250000
vt 0.375000 0.250000
vt 0.375000 0.250000
vt 0.625000 0.250000
vt 0.625000 0.250000
vt 0.375000 0.250000
vt 0.375000 0.250000
vt 0.625000 0.250000
vt 0.625000 0.250000
vt 0.375000 0.250000
vt 0.875000 0.500000
vt 0.875000 0.500000
vt 0.125000 0.500000
vt 0.125000 0.500000
vt 0.125000 0.500000
vt 0.125000 0.500000
vt 0.125000 0.500000
vt 0.125000 0.500000
vt 0.125000 0.500000
vt 0.125000 0.500000
vt 0.125000 0.500000
vt 0.875000 0.500000
vt 0.875000 0.500000
vt 0.875000 0.500000
vt 0.875000 0.500000
vt 0.125000 0.500000
vt 0.375000 0.250000
vt 0.625000 0.250000
vt 0.375000 0.250000
vt 0.625000 0.250000
vt 0.625000 0.250000
vt 0.375000 0.250000
vt 0.875000 0.500000
vt 0.875000 0.500000
vt 0.375000 0.250000
vt 0.625000 0.250000
vt 0.875000 0.500000
vt 0.875000 0.500000
vt 0.875000 0.500000
vt 0.875000 0.500000
vt 0.625000 0.250000
vt 0.375000 0.250000
vt 0.375000 0.250000
vt 0.625000 0.250000
vt 0.625000 0.250000
vt 0.375000 0.250000
vt 0.125000 0.500000
vt 0.125000 0.500000
vt 0.125000 0.500000
vt 0.125000 0.500000
vt 0.372709 0.750000
vt 0.700699 0.000000
vt 0.724014 1.000000
vt 0.375000 0.353311
vt 0.507502 0.353311
vt 0.475505 0.353311
vt 0.483422 0.353311
vt 0.517141 0.353311
vt 0.529341 0.353311
vt 0.497344 0.353311
vt 0.505261 0.353311
vt 0.538980 0.353311
vt 0.551180 0.353311
vt 0.519183 0.353311
vt 0.527100 0.353311
vt 0.560818 0.353311
vt 0.625000 0.353311
vt 0.509361 0.353311
vt 0.510071 0.353311
vt 0.516095 0.353311
vt 0.515385 0.353311
vt 0.531199 0.353311
vt 0.531909 0.353311
vt 0.559772 0.353311
vt 0.559083 0.353311
vt nan nan
vt nan nan
vt 0.537933 0.353311
vt 0.537224 0.353311
vt 0.553058 0.353311
vt 0.553748 0.353311
vt 0.708682 1.000000
vt 0.000000 1.000000
vt 0.000000 0.000000
vt 0.559772 0.353311
vt 0.559719 0.353311
vt 0.552987 0.353311
vt 0.521362 0.353311
vt 0.701856 0.000000
vt 0.708682 1.000000
vt 0.000000 1.000000
vt 0.000000 0.000000
vt 0.700699 0.000000
vt 0.724014 1.000000
vt 0.725172 1.000000
vt 0.531148 0.353311
vt 0.499523 0.353311
vt 0.701856 0.000000
vt 0.708681 1.000000
vt 0.000000 1.000000
vt 0.000000 0.000000
vt 0.700699 0.000000
vt 0.724014 1.000000
vt 0.725172 1.000000
vt 0.509310 0.353311
vt 0.477684 0.353311
vt 0.701856 0.000000
vn -0.4226 0.9063 -0.0000
vn 0.4226 -0.9063 0.0000
vn 1.0000 0.0000 -0.0037
vn 0.9063 0.4226 0.0000
vn -0.0037 0.0000 -1.0000
vn -1.0000 0.0000 0.0037
vn 0.0000 1.0000 0.0000
vn 0.0037 0.0000 1.0000
vn 0.0000 -1.0000 -0.0000
vn 0.8625 0.0000 -0.5060
vn -0.8625 0.0000 0.5060
vn 0.0000 -0.3195 0.9476
vn 0.0000 0.0000 1.0000
vn 0.7097 0.0000 0.7045
vn -0.7097 0.0000 -0.7045
vn 0.7045 0.0000 -0.7097
vn -0.7045 0.0000 0.7097
vn 0.8928 -0.0029 -0.4505
vn 0.3012 -0.6403 0.7066
vn 0.6424 0.2983 0.7059
vn 0.7177 -0.6962 0.0164
vn -0.2965 0.6413 0.7077
vn 0.0977 0.9949 0.0234
vn 0.3012 -0.6404 0.7066
vn 0.7322 -0.0000 0.6811
vn 0.8383 -0.5452 -0.0022
vn 0.5176 0.8556 -0.0034
usemtl Wall
s off
f 1/1/1 184/2/1 197/3/1 196/4/1 189/5/1
f 186/6/2 2/7/2 188/8/2 191/9/2 194/10/2
f 3/11/1 168/12/1 181/13/1 180/14/1 173/15/1
f 170/16/2 4/17/2 172/18/2 175/19/2 178/20/2
f 114/21/3 115/22/3 120/23/3 162/24/3 155/25/3 158/26/3 165/27/3 176/28/3 171/29/3 174/30/3 179/31/3 192/32/3 187/33/3 190/34/3 195/35/3 117/36/3
f 154/37/2 6/38/2 156/39/2 161/40/2 160/41/2
f 6/38/4 154/37/4 152/42/4 5/43/4
f 7/44/3 8/45/3 10/46/3 9/47/3
f 23/48/5 24/49/5 116/50/5 113/51/5
f 98/52/5 99/53/5 34/54/5 33/55/5
f 33/55/5 34/54/5 8/56/5 7/57/5
f 11/58/6 12/59/6 100/60/6 97/61/6
f 32/62/7 10/63/7 8/64/7 34/65/7
f 13/66/6 15/67/6 16/68/6 14/69/6
f 12/59/6 11/58/6 110/70/6 111/71/6
f 101/72/5 19/73/5 20/74/5 104/75/5
f 19/73/5 13/76/5 14/77/5 20/74/5
f 105/78/3 102/79/3 103/80/3 108/81/3
f 18/82/7 20/83/7 14/84/7 16/85/7
f 17/86/8 106/87/8 107/88/8 18/89/8
f 15/90/9 13/91/9 19/92/9 17/93/9
f 107/94/7 108/81/7 103/80/7 104/95/7 20/83/7 18/82/7
f 15/90/9 17/93/9 23/96/9 22/97/9
f 24/98/7 21/99/7 27/100/7 30/101/7
f 18/82/7 16/85/7 21/99/7 24/98/7
f 16/68/6 15/67/6 22/102/6 21/103/6
f 17/86/3 18/89/3 24/49/3 23/48/3
f 32/62/7 12/59/7 111/71/7 112/104/7 36/105/7
f 9/47/3 10/46/3 25/106/3 26/107/3
f 11/58/9 31/108/9 35/109/9 109/110/9 110/70/9
f 31/108/9 9/111/9 26/112/9 35/109/9
f 21/103/6 22/102/6 28/113/6 27/114/6
f 39/115/9 38/116/9 50/117/9 121/118/9 122/119/9
f 22/97/9 23/96/9 29/120/9 28/121/9
f 35/122/8 36/123/8 112/124/8 109/125/8
f 26/107/10 25/106/10 37/126/10 38/127/10
f 17/93/9 19/92/9 101/128/9 102/79/9 105/78/9 106/129/9
f 9/111/9 31/108/9 33/130/9 7/131/9
f 12/59/7 32/62/7 34/65/7 99/132/7 100/60/7
f 10/63/7 32/62/7 36/105/7 25/133/7
f 85/134/9 75/135/9 68/136/9 125/137/9 126/138/9
f 35/109/9 26/112/9 38/116/9 39/115/9
f 36/123/11 35/122/11 39/139/11 40/140/11
f 25/133/7 36/105/7 40/141/7 37/142/7
f 29/120/9 23/96/9 113/143/9 114/144/9 117/145/9 118/146/9
f 24/98/7 30/101/7 119/147/7 120/148/7 115/149/7 116/150/7
f 5/43/1 152/42/1 163/151/1 166/152/1 157/153/1
f 27/114/6 28/113/6 42/154/6 41/155/6
f 30/101/7 27/100/7 41/156/7 44/157/7
f 28/121/9 29/120/9 43/158/9 42/159/9
f 29/160/3 30/161/3 44/162/3 43/163/3
f 48/164/6 47/165/6 45/166/6 46/167/6
f 43/163/3 44/162/3 72/168/3 71/169/3
f 74/170/3 73/171/3 81/172/3 82/173/3
f 44/157/7 41/156/7 69/174/7 72/175/7
f 42/159/9 43/158/9 71/176/9 70/177/9
f 40/140/6 39/139/6 122/178/6 123/179/6
f 56/180/7 55/181/7 53/182/7 51/183/7
f 37/142/7 40/141/7 123/184/7 124/185/7 49/186/7
f 50/187/8 49/188/8 124/189/8 121/190/8
f 52/191/3 51/192/3 53/193/3 54/194/3
f 57/195/5 56/196/5 51/192/5 52/191/5
f 58/197/9 57/198/9 52/199/9 54/200/9
f 64/201/3 63/202/3 59/203/3 60/204/3
f 49/188/8 50/187/8 58/205/8 55/206/8
f 50/117/9 38/116/9 57/198/9 58/197/9
f 38/127/5 37/126/5 56/196/5 57/195/5
f 37/142/7 49/186/7 55/181/7 56/180/7
f 61/207/8 62/208/8 60/204/8 59/203/8
f 63/209/7 66/210/7 61/211/7 59/212/7
f 65/213/9 64/214/9 60/215/9 62/216/9
f 58/197/9 54/200/9 64/214/9 65/213/9
f 53/182/7 55/181/7 66/210/7 63/209/7
f 55/206/6 58/205/6 65/217/6 66/218/6
f 54/194/3 53/193/3 63/202/3 64/201/3
f 86/219/5 85/220/5 126/221/5 127/222/5
f 76/223/7 86/224/7 127/225/7 128/226/7 67/227/7
f 128/228/6 125/229/6 68/230/6 67/231/6
f 70/177/7 71/176/7 129/232/7 130/233/7 74/234/7
f 72/175/12 69/174/12 73/235/12 131/236/12 132/237/12
f 71/238/13 72/239/13 132/240/13 129/241/13
f 74/170/8 130/242/8 131/243/8 73/171/8
f 82/173/5 81/172/5 135/244/5 134/245/5 136/246/5
f 42/159/9 70/177/9 45/247/9 47/248/9
f 70/177/13 74/234/13 82/249/13 80/250/13
f 41/155/5 42/154/5 47/165/5 48/164/5
f 69/174/7 41/156/7 48/251/7 46/252/7
f 46/167/6 45/166/6 77/253/6 78/254/6
f 69/174/7 46/252/7 78/255/7 79/256/7
f 80/250/13 82/249/13 84/257/13 77/258/13
f 78/254/13 77/253/13 84/259/13 83/260/13
f 76/223/7 67/227/7 88/261/7 89/262/7
f 81/263/13 79/256/13 78/255/13 83/264/13
f 73/235/13 69/174/13 79/256/13 81/263/13
f 45/247/9 70/177/9 80/250/9 77/258/9
f 61/211/7 66/210/7 86/224/7 76/223/7
f 65/213/9 62/216/9 75/135/9 85/134/9
f 66/218/5 65/217/5 85/220/5 86/219/5
f 62/208/8 61/207/8 76/265/8 75/266/8
f 94/267/8 89/268/8 88/269/8 87/270/8
f 91/271/8 90/272/8 92/273/8 93/274/8
f 83/260/6 84/259/6 93/274/6 92/273/6
f 81/263/7 83/264/7 92/275/7 90/276/7
f 75/266/3 76/265/3 89/268/3 94/267/3
f 84/257/9 82/249/9 91/277/9 93/278/9
f 68/136/9 75/135/9 94/279/9 87/280/9
f 91/277/9 82/249/9 136/281/9 138/282/9 137/283/9 141/284/9 142/285/9
f 81/263/7 90/276/7 139/286/7 140/287/7 133/288/7 135/289/7
f 80/250/7 96/290/7 138/282/7 136/281/7 82/249/7
f 90/272/8 91/271/8 142/291/8 139/292/8
f 137/293/3 133/294/3 140/295/3 141/296/3
f 81/263/9 135/289/9 134/297/9 95/298/9 79/256/9
f 67/231/5 68/230/5 146/299/5 143/300/5
f 88/261/7 67/227/7 143/301/7 144/302/7 149/303/7 150/304/7
f 144/305/6 145/306/6 148/307/6 149/308/6
f 87/270/8 88/269/8 150/309/8 147/310/8
f 68/136/9 87/280/9 147/311/9 148/312/9 145/313/9 146/314/9
f 31/108/9 11/58/9 97/61/9 98/315/9 33/130/9
f 5/43/13 157/153/13 158/316/13 155/317/13 156/39/13 6/38/13
f 4/17/4 170/16/4 168/12/4 3/11/4
f 3/11/13 173/15/13 172/18/13 4/17/13
f 2/7/4 186/6/4 184/2/4 1/1/4
f 1/1/13 189/5/13 188/8/13 2/7/13
f 30/161/8 29/160/8 118/318/8 198/319/8 183/320/8 185/321/8 193/322/8 182/323/8 167/324/8 169/325/8 177/326/8 164/327/8 151/328/8 153/329/8 159/330/8 119/331/8
usemtl Light
f 117/36/14 195/35/14 196/332/14 197/333/14 198/319/14 118/318/14
f 193/322/14 194/334/14 191/335/14 192/32/14 179/31/14 180/336/14 181/337/14 182/323/14
f 159/330/14 160/338/14 161/339/14 162/24/14 120/23/14 119/331/14
f 133/288/7 134/297/7 135/289/7
f 136/281/7 137/283/7 138/282/7
f 99/53/15 98/52/15 97/61/15 100/60/15
f 107/88/14 106/87/14 105/78/14 108/81/14
f 103/80/16 102/79/16 101/72/16 104/75/16
f 111/71/17 110/70/17 109/125/17 112/124/17
f 113/51/16 116/50/16 115/22/16 114/21/16
f 123/179/17 122/178/17 121/190/17 124/189/17
f 125/229/15 128/228/15 127/222/15 126/221/15
f 129/340/8 132/341/8 131/243/8 130/242/8
f 133/294/18 137/293/18 136/246/18 134/245/18
f 139/292/14 142/291/14 141/296/14 140/295/14
f 145/306/15 144/305/15 143/300/15 146/299/15
f 147/310/17 150/309/17 149/308/17 148/307/17
f 177/326/14 178/342/14 175/343/14 176/28/14 165/27/14 166/344/14 163/345/14 164/327/14
f 154/37/19 160/41/19 159/346/19 153/347/19
f 152/42/20 154/37/20 153/347/20 151/348/20
f 155/25/21 162/24/21 161/349/21 156/350/21
f 151/328/22 164/327/22 163/351/22 152/352/22
f 157/153/23 166/152/23 165/353/23 158/316/23
f 170/16/24 178/20/24 177/354/24 169/355/24
f 168/12/20 170/16/20 169/355/20 167/356/20
f 172/18/25 173/15/25 174/357/25 171/358/25
f 175/19/26 172/18/26 171/358/26 176/359/26
f 167/324/22 182/323/22 181/360/22 168/361/22
f 173/15/27 180/14/27 179/362/27 174/357/27
f 186/6/24 194/10/24 193/363/24 185/364/24
f 184/2/20 186/6/20 185/364/20 183/365/20
f 188/8/25 189/5/25 190/366/25 187/367/25
f 191/9/26 188/8/26 187/367/26 192/368/26
f 183/320/22 198/319/22 197/369/22 184/370/22
f 189/5/27 196/4/27 195/371/27 190/366/27
